name processed_emg_signals
nRows=49
nColumns=7
 
endheader
time	LGLTMED	LRF	LADDLONG	LST	LTA	LGM
0.0	0.0051333045544336	0.0136102566702057	0.000641162423271	0.0790039430678076	0.3387450290732087	0.0354499626851727
0.001	0.0055506070070245	0.0143343632549118	0.0001312248626103	0.0848136911635945	0.3161973431968585	0.032862110600582
0.002	0.0059700575432477	0.0150631461017522	0.0009031086033015	0.0905932281131166	0.2936814596974573	0.0302777076524334
0.003	0.0063915236618492	0.0157963092697456	0.0016741018489091	0.0963381360797151	0.2712072558533189	0.0276979686526586
0.004	0.0068148763094959	0.0165335596002537	0.002443822130435	0.1020440457442249	0.2487844764819617	0.0251240937421197
0.005	0.007239990260997	0.0172746074618375	0.0032118920798179	0.107706644813071	0.2264227227913068	0.0225572668553202
0.006	0.0076667444938118	0.0180191674888318	0.0039779400376224	0.1133216864290465	0.2041314417274829	0.0199986542426795
0.007	0.0080950225555449	0.0187669593105348	0.0047416006465266	0.1188849974533599	0.1819199158450421	0.0174494030549038
0.008	0.0085247129231316	0.0195177082681617	0.0055025154287963	0.1243924865880366	0.159797253723688	0.0149106399938167
0.009000000000000001	0.0089557093525027	0.0202711461168208	0.0062603333460265	0.1298401523086274	0.137772380954098	0.0123834700336789
0.01	0.009387911217491	0.0210270117100157	0.0070147113394893	0.1352240905784021	0.1158540317138114	0.0098689752167533
0.011	0.0098212238367794	0.0217850516642691	0.0077653148494877	0.14054050231707	0.0940507409527241	0.0073682135263635
0.012	0.0102555587876938	0.0225450210016894	0.0085118183122063	0.1457857005991019	0.0723708372060707	0.0048822178402724
0.013000000000000001	0.0106908342056496	0.0233066837684088	0.0092539056325918	0.1509561175592159	0.0508224360508084	0.0024119949667081
0.014	0.0111269750681085	0.0240698136269716	0.00999127063191	0.1560483109850264	0.0294134342190833	4.147523521364473e-05
0.015	0.0115639134619488	0.0248341944208106	0.01072361746871	0.1610589705794511	0.0081515043798499	0.0024772406492344
0.016	0.0120015888332435	0.0255996207090287	0.0114506610320671	0.1659849238779645	0.0129559094027408	0.0048943776090365
0.017	0.0124399482184183	0.0263658982698348	0.0121721273060539	0.1708231418082837	0.0339015955286987	0.0072919915182237
0.018000000000000002	0.0128789464559057	0.0271328445710567	0.0128877537046196	0.1755707438821651	0.0546785780375006	0.0096692173833311
0.019	0.0133185463774085	0.0279002892063169	0.013597289376121	0.1802250030108297	0.0752801191021169	0.0120252202604604
0.02	0.0137587189778891	0.0286680742955562	0.0143004954769736	0.1847833499370522	0.0956997208491971	0.0143591956165981
0.021	0.014199443563494	0.0294360548487746	0.0149971454139894	0.1892433772783466	0.1159311265172768	0.0166703696070647
0.022	0.0146407078766045	0.0302040990919726	0.0156870250551128	0.1936028431767006	0.1359683209689	0.0189579992708718
0.023	0.0150825081973739	0.0309720887544565	0.0163699329084156	0.1978596745510005	0.1558055305759927	0.0212213726461646
0.024	0.0155248494210757	0.0317399193167871	0.0170456802693439	0.2020119699487924	0.175437222501056	0.0234598088082583
0.025	0.0159677451107708	0.0325075002187957	0.0177140913363159	0.2060580019948493	0.1948581033993462	0.0256726578331042
0.026000000000000002	0.0164112175247482	0.0332747550273185	0.0183750032948627	0.2099962194351139	0.2140631175690753	0.0278593006892095
0.027	0.0168552976183117	0.0340416215633331	0.0190282663706409	0.2138252487759472	0.2330474445778236	0.0300191490611771
0.028	0.0173000250195776	0.0348080519883944	0.0196737438516995	0.2175438955199168	0.2518064963937625	0.0321516451081361
0.029	0.0177454479790352	0.0355740128502561	0.020311312080478	0.2211511450006434	0.2703359140507057	0.0342562611604434
0.03	0.0181916232927919	0.0363394850876209	0.0209408604159739	0.2246461628203392	0.2886315638762178	0.036332499358146
0.031	0.0186386161994778	0.0371044639940366	0.0215622911666348	0.2280282948946456	0.3066895333126751	0.0383798912347536
0.032	0.0190865002508718	0.0378689591408748	0.0221755194944987	0.2312970671101992	0.3245061263620677	0.0403979972499574
0.033	0.0195353571563539	0.0386329942593178	0.0227804732912834	0.234452184600913	0.3420778586865239	0.0423864062750052
0.034	0.0199852766013879	0.0393966070812141	0.0233770930271821	0.237493530649199	0.3594014523976994	0.0443447350343765
0.035	0.0204363560403186	0.0401598491385743	0.0239653315731899	0.2404211652186438	0.3764738305691183	0.0462726275075117
0.036000000000000004	0.0208887004638147	0.040922785521534	0.024545153997842	0.2432353231251014	0.3932921115060398	0.0481697542942514
0.037	0.0213424221414291	0.0416854945945763	0.025116537339199	0.2459364118539395	0.4098536028074021	0.0500358119476639
0.038	0.0217976403397343	0.0424480676709412	0.0256794703528811	0.2485250090320656	0.4261557952541526	0.0518705222779423
0.039	0.0222544810166183	0.0432106086451826	0.0262339532370692	0.2510018595640417	0.4421963565579778	0.0536736316310897
0.04	0.022713076492366	0.0439732335840945	0.0267799973354058	0.2533678724421823	0.4579731250041093	0.0554449101460493
0.041	0.0231735650982097	0.0447360702764505	0.0273176248188923	0.2556241172408468	0.4734841030214888	0.0571841509940128
0.042	0.0236360908030757	0.045499257742304	0.0278468683479549	0.2577718203054569	0.4887274507129645	0.0588911696035283
0.043000000000000003	0.024100802819328	0.0462629457029686	0.0283677707158762	0.2598123606473702	0.5037014793774293	0.0605658028750922
0.044	0.0245678551883107	0.0470272940130345	0.0288803844748758	0.2617472655566356	0.5184046450550677	0.0622079083887752
0.045	0.0250374063465121	0.0477924720560509	0.0293847715461019	0.2635782059456901	0.532835542125922	0.0638173636084375
0.046	0.0255096186732168	0.0485586581056347	0.0298810028148867	0.2653069914382865	0.5469928969910542	0.065394065085885
0.047	0.0259846580204787	0.0493260386539412	0.0303691577126326	0.2669355652187347	0.5608755618641936	0.0669379276682595
0.048	0.0264626932263555	0.0500948077094508	0.0308493237867908	0.2684659986571575	0.5744825087004284	0.0684488837117553
